<?xml version="1.0" encoding="UTF-8" standalone="no"?>
<!-- Created with Inkscape (http://www.inkscape.org/) -->

<svg
   xmlns:dc="http://purl.org/dc/elements/1.1/"
   xmlns:cc="http://creativecommons.org/ns#"
   xmlns:rdf="http://www.w3.org/1999/02/22-rdf-syntax-ns#"
   xmlns:svg="http://www.w3.org/2000/svg"
   xmlns="http://www.w3.org/2000/svg"
   xmlns:xlink="http://www.w3.org/1999/xlink"
   xmlns:sodipodi="http://sodipodi.sourceforge.net/DTD/sodipodi-0.dtd"
   xmlns:inkscape="http://www.inkscape.org/namespaces/inkscape"
   width="94"
   height="94"
   id="svg6393"
   version="1.1"
   inkscape:version="0.92.3pre0 (0ab9bec, 2018-03-03)"
   sodipodi:docname="agendas.svg"
   inkscape:export-filename="/home/uri/workspace/Nitrux/res/drawable-xhdpi/gtasks.png"
   inkscape:export-xdpi="180"
   inkscape:export-ydpi="180">
  <defs
     id="defs6395">
    <linearGradient
       inkscape:collect="always"
       id="linearGradient1453">
      <stop
         style="stop-color:#fbf3c2;stop-opacity:1"
         offset="0"
         id="stop1455" />
      <stop
         style="stop-color:#fdfad1;stop-opacity:1"
         offset="1"
         id="stop1457" />
    </linearGradient>
    <linearGradient
       inkscape:collect="always"
       xlink:href="#linearGradient1453"
       id="linearGradient1459"
       x1="427.78571"
       y1="-757.43359"
       x2="427.78571"
       y2="-708.50507"
       gradientUnits="userSpaceOnUse"
       gradientTransform="matrix(1.8958329,0,0,1.9166664,-359.86889,693.33178)" />
  </defs>
  <sodipodi:namedview
     id="base"
     pagecolor="#ffffff"
     bordercolor="#666666"
     borderopacity="1.0"
     inkscape:pageopacity="0.0"
     inkscape:pageshadow="2"
     inkscape:zoom="3.9907339"
     inkscape:cx="-57.756828"
     inkscape:cy="50.610432"
     inkscape:document-units="px"
     inkscape:current-layer="layer1"
     showgrid="false"
     fit-margin-top="0"
     fit-margin-left="0"
     fit-margin-right="0"
     fit-margin-bottom="0"
     inkscape:window-width="1920"
     inkscape:window-height="998"
     inkscape:window-x="0"
     inkscape:window-y="48"
     inkscape:window-maximized="1" />
  <metadata
     id="metadata6398">
    <rdf:RDF>
      <cc:Work
         rdf:about="">
        <dc:format>image/svg+xml</dc:format>
        <dc:type
           rdf:resource="http://purl.org/dc/dcmitype/StillImage" />
        <dc:title></dc:title>
      </cc:Work>
    </rdf:RDF>
  </metadata>
  <g
     inkscape:label="Capa 1"
     inkscape:groupmode="layer"
     id="layer1"
     transform="translate(-401.71429,-662.36218)">
    <g
       id="g187"
       transform="translate(1.2529051,-0.75174153)">
      <rect
         transform="scale(1,-1)"
         ry="3.7270412"
         y="-756.36218"
         x="401.71429"
         height="91.999985"
         width="90.999985"
         id="rect2991-1"
         style="fill:url(#linearGradient1459);fill-opacity:1;stroke:none;stroke-width:1.90622115" />
      <path
         id="rect846"
         d="m 401.71429,750.61219 v 2.03646 c 0,2.06482 1.63083,3.71354 3.67318,3.71354 h 83.65362 c 2.04235,0 3.6732,-1.64872 3.6732,-3.71354 v -2.03646 c 0,2.06483 -1.63085,3.71354 -3.6732,3.71354 h -83.65362 c -2.04235,0 -3.67318,-1.64871 -3.67318,-3.71354 z"
         style="fill:#000000;fill-opacity:1;stroke:none;stroke-width:1.90622115"
         inkscape:connector-curvature="0" />
      <path
         id="rect4280-0"
         d="m 405.38747,664.3622 c -2.04235,0 -3.67318,1.64872 -3.67318,3.71355 v 82.53644 c 0,1.52068 0.91004,2.77725 2.19206,3.35417 -0.58646,-0.63883 -0.94792,-1.4996 -0.94792,-2.45564 v -82.29686 c 0,-2.00905 1.56766,-3.59375 3.55469,-3.59375 h 81.40232 c 1.98703,0 3.55471,1.5847 3.55471,3.59375 v 82.29686 c 0,0.95604 -0.36148,1.81681 -0.94794,2.45564 1.28202,-0.57692 2.19208,-1.83349 2.19208,-3.35417 v -82.53644 c 0,-2.06483 -1.63085,-3.71355 -3.6732,-3.71355 z"
         style="fill:#000000;fill-opacity:0.39215686;stroke:none;stroke-width:1.90622115"
         inkscape:connector-curvature="0" />
      <path
         id="path7515"
         d="m 406.51312,665.62011 c -1.73865,0 -3.16822,1.22571 -3.49544,2.875 0.63626,-0.53647 1.46834,-0.83854 2.36979,-0.83854 h 83.65362 c 0.90145,0 1.73354,0.30207 2.36981,0.83854 -0.32723,-1.64929 -1.75681,-2.875 -3.49546,-2.875 z"
         style="fill:#ffffff;fill-opacity:0.5372549;stroke:none;stroke-width:1.90622115"
         inkscape:connector-curvature="0" />
      <path
         inkscape:connector-curvature="0"
         id="path1494"
         d="m 402.95843,675.50281 v 0.71875 h 88.5117 v -0.71875 z"
         style="fill:#4d4d4d;fill-opacity:0.35371178;stroke:none;stroke-width:1.90622115" />
      <path
         inkscape:connector-curvature="0"
         id="path1492"
         d="m 402.95843,687.00281 v 0.71875 h 88.5117 v -0.71875 z"
         style="fill:#4d4d4d;fill-opacity:0.35371178;stroke:none;stroke-width:1.90622115" />
      <path
         inkscape:connector-curvature="0"
         id="path1490"
         d="m 402.95843,698.5028 v 0.71875 h 88.5117 v -0.71875 z"
         style="fill:#4d4d4d;fill-opacity:0.35371178;stroke:none;stroke-width:1.90622115" />
      <path
         inkscape:connector-curvature="0"
         id="path1488"
         d="m 402.95843,710.0028 v 0.71875 h 88.5117 v -0.71875 z"
         style="fill:#4d4d4d;fill-opacity:0.35371178;stroke:none;stroke-width:1.90622115" />
      <path
         inkscape:connector-curvature="0"
         id="path1486"
         d="m 402.95843,721.5028 v 0.71875 h 88.5117 v -0.71875 z"
         style="fill:#4d4d4d;fill-opacity:0.35371178;stroke:none;stroke-width:1.90622115" />
      <path
         inkscape:connector-curvature="0"
         id="path1484"
         d="m 402.95843,733.0028 v 0.71875 h 88.5117 v -0.71875 z"
         style="fill:#4d4d4d;fill-opacity:0.35371178;stroke:none;stroke-width:1.90622115" />
      <path
         inkscape:connector-curvature="0"
         id="rect1425"
         d="m 402.95843,744.5028 v 0.71875 h 88.5117 v -0.71875 z"
         style="fill:#4d4d4d;fill-opacity:0.35371178;stroke:none;stroke-width:1.90622115" />
      <path
         inkscape:connector-curvature="0"
         id="rect1421"
         d="m 417.05869,665.62 v 90.74217 h 0.71094 V 665.62 Z m 2.36979,0 v 90.74217 h 0.71094 V 665.62 Z"
         style="fill:#666666;fill-opacity:0.29694322;stroke:none;stroke-width:1.90622115" />
      <path
         inkscape:connector-curvature="0"
         id="rect1472"
         d="m 408.2024,678.73718 -1.01285,1.02398 1.83092,1.85102 -1.83092,1.85102 1.01285,1.02398 1.8309,-1.85102 1.83092,1.85102 1.01283,-1.02398 -1.8309,-1.85102 1.8309,-1.85102 -1.01283,-1.02398 -1.83092,1.85102 z"
         style="fill:#666666;fill-opacity:1;stroke:none;stroke-width:1.90622115" />
      <path
         inkscape:connector-curvature="0"
         id="rect1476"
         d="m 412.65617,701.73718 -3.69965,3.74028 -1.54611,-1.56308 -0.99392,1.00485 1.54611,1.5631 0.99392,1.00485 0.99395,-1.00485 3.69962,-3.7403 z"
         style="fill:#666666;fill-opacity:1;stroke:none;stroke-width:1.90622115" />
      <path
         style="fill:#666666;fill-opacity:1;stroke:none;stroke-width:1.90622115"
         d="m 412.65617,690.23718 -3.69965,3.74028 -1.54611,-1.56308 -0.99392,1.00485 1.54611,1.5631 0.99392,1.00485 0.99395,-1.00485 3.69962,-3.7403 z"
         id="path1496"
         inkscape:connector-curvature="0" />
      <path
         style="fill:#666666;fill-opacity:1;stroke:none;stroke-width:1.90622115"
         d="m 408.2024,713.23718 -1.01285,1.02398 1.83092,1.85102 -1.83092,1.85102 1.01285,1.02398 1.8309,-1.85102 1.83092,1.85102 1.01283,-1.02398 -1.8309,-1.85102 1.8309,-1.85102 -1.01283,-1.02398 -1.83092,1.85102 z"
         id="path1498"
         inkscape:connector-curvature="0" />
      <path
         style="fill:#666666;fill-opacity:1;stroke:none;stroke-width:1.90622115"
         d="m 412.65617,736.23717 -3.69965,3.74028 -1.54611,-1.56308 -0.99392,1.00485 1.54611,1.5631 0.99392,1.00485 0.99395,-1.00485 3.69962,-3.7403 z"
         id="path1500"
         inkscape:connector-curvature="0" />
      <path
         inkscape:connector-curvature="0"
         id="path1504"
         d="m 408.2024,724.73718 -1.01285,1.02397 1.83092,1.85103 -1.83092,1.85102 1.01285,1.02397 1.8309,-1.85102 1.83092,1.85102 1.01283,-1.02397 -1.8309,-1.85102 1.8309,-1.85103 -1.01283,-1.02397 -1.83092,1.85102 z"
         style="fill:#666666;fill-opacity:1;stroke:none;stroke-width:1.90622115" />
      <path
         d="m 425.85247,682.82415 -0.96568,-3.45309 h 0.76112 q 0.1856,0.79835 0.31873,1.40432 0.081,0.35589 0.14275,0.67812 0.0618,0.32221 0.081,0.44244 0.0618,-0.36069 0.12853,-0.71658 0.0952,-0.51459 0.35678,-1.8083 h 0.75636 q 0.2759,1.31775 0.37581,1.80349 0.0665,0.33185 0.13309,0.72139 0.0618,-0.32221 0.14276,-0.69734 0.0857,-0.37513 0.42337,-1.82754 h 0.72307 l -0.96092,3.45309 h -0.68502 q -0.076,-0.36551 -0.26638,-1.30334 -0.0762,-0.38473 -0.1475,-0.75024 -0.0713,-0.37031 -0.11887,-0.63963 -0.0571,0.33184 -0.10465,0.59636 -0.076,0.39435 -0.14749,0.75024 -0.14276,0.6733 -0.28068,1.34661 z"
         style="font-style:normal;font-variant:normal;font-weight:bold;font-stretch:normal;font-size:2.50919676px;line-height:125%;font-family:Helvetica;-inkscape-font-specification:'Helvetica Bold';text-align:start;letter-spacing:0px;word-spacing:0px;writing-mode:lr-tb;text-anchor:start;fill:#706f6c;fill-opacity:1;stroke:none;stroke-width:1.90622115"
         id="path1654"
         inkscape:connector-curvature="0" />
      <path
         d="m 431.47646,680.9389 0.004,1.38507 q 0,0.21162 0.0381,0.29337 0.0381,0.0818 0.10939,0.1058 v 0.10101 h -0.71832 q -0.0476,-0.14433 -0.0618,-0.30299 -0.16171,0.17308 -0.29493,0.24528 -0.21882,0.12496 -0.52327,0.12496 -0.31873,0 -0.52803,-0.17307 -0.24261,-0.20198 -0.24261,-0.5723 0,-0.3607 0.19504,-0.56269 0.19979,-0.20679 0.54231,-0.25488 l 0.59461,-0.0914 q 0.13801,-0.0192 0.1856,-0.0673 0.0523,-0.0529 0.0523,-0.13455 0,-0.18764 -0.15697,-0.2549 -0.0999,-0.0433 -0.28542,-0.0433 -0.21882,0 -0.31873,0.12018 -0.0713,0.0866 -0.0857,0.23565 h -0.64219 q 0.0476,-0.52904 0.39482,-0.74063 0.25213,-0.15391 0.73259,-0.15391 0.38055,0 0.63744,0.12976 0.37194,0.18764 0.37194,0.61086 z m -0.64697,0.96667 v -0.32704 q -0.0476,0.0385 -0.15224,0.077 -0.10465,0.0337 -0.31873,0.0673 -0.2093,0.0337 -0.29969,0.0962 -0.13328,0.0914 -0.13328,0.28376 0,0.1587 0.10465,0.24046 0.0857,0.0673 0.20455,0.0673 0.23785,0 0.41386,-0.13953 0.18088,-0.13935 0.18088,-0.36547 z"
         style="font-style:normal;font-variant:normal;font-weight:bold;font-stretch:normal;font-size:2.50919676px;line-height:125%;font-family:Helvetica;-inkscape-font-specification:'Helvetica Bold';text-align:start;letter-spacing:0px;word-spacing:0px;writing-mode:lr-tb;text-anchor:start;fill:#706f6c;fill-opacity:1;stroke:none;stroke-width:1.90622115"
         id="path1656"
         inkscape:connector-curvature="0" />
      <path
         d="m 432.7639,682.01618 v 0.80797 h -0.66599 v -3.45309 h 0.66123 v 1.86601 l 0.83724,-0.97148 h 0.8182 l -0.89432,0.99072 0.92286,1.56784 h -0.79917 l -0.60891,-1.09653 z"
         style="font-style:normal;font-variant:normal;font-weight:bold;font-stretch:normal;font-size:2.50919676px;line-height:125%;font-family:Helvetica;-inkscape-font-specification:'Helvetica Bold';text-align:start;letter-spacing:0px;word-spacing:0px;writing-mode:lr-tb;text-anchor:start;fill:#706f6c;fill-opacity:1;stroke:none;stroke-width:1.90622115"
         id="path1658"
         inkscape:connector-curvature="0" />
      <path
         d="m 436.30869,682.07389 h 0.685 q -0.1236,0.42803 -0.45666,0.63965 -0.28066,0.17786 -0.65647,0.17786 -0.58512,0 -0.89908,-0.30298 -0.36154,-0.3511 -0.36154,-1.09653 0,-0.43765 0.1856,-0.75986 0.30445,-0.53383 1.02277,-0.53383 0.48046,0 0.78491,0.2645 0.4091,0.35589 0.4091,1.14461 l -0.006,0.12018 h -1.73631 q 0.0428,0.34145 0.18067,0.48574 0.14275,0.13953 0.41862,0.13953 0.14749,0 0.2664,-0.0721 0.12463,-0.0721 0.16268,-0.20681 z m -1.00373,-0.78392 h 1.03226 q -0.0286,-0.28374 -0.19026,-0.42322 -0.13328,-0.11538 -0.32349,-0.11538 -0.23309,0 -0.36153,0.13953 -0.12845,0.13934 -0.15698,0.39907 z"
         style="font-style:normal;font-variant:normal;font-weight:bold;font-stretch:normal;font-size:2.50919676px;line-height:125%;font-family:Helvetica;-inkscape-font-specification:'Helvetica Bold';text-align:start;letter-spacing:0px;word-spacing:0px;writing-mode:lr-tb;text-anchor:start;fill:#706f6c;fill-opacity:1;stroke:none;stroke-width:1.90622115"
         id="path1660"
         inkscape:connector-curvature="0" />
      <path
         d="m 441.0704,680.26559 v 2.55856 h -0.63746 v -0.3607 q -0.2521,0.42803 -0.78015,0.42803 -0.39483,0 -0.6184,-0.22605 -0.24261,-0.24528 -0.24261,-0.71659 l -0.006,-1.68325 h 0.67075 v 1.58708 q 0,0.26931 0.13801,0.38473 0.10465,0.0866 0.29494,0.0866 0.20456,0 0.33776,-0.11538 0.17593,-0.15391 0.17593,-0.4665 v -1.47646 z"
         style="font-style:normal;font-variant:normal;font-weight:bold;font-stretch:normal;font-size:2.50919676px;line-height:125%;font-family:Helvetica;-inkscape-font-specification:'Helvetica Bold';text-align:start;letter-spacing:0px;word-spacing:0px;writing-mode:lr-tb;text-anchor:start;fill:#706f6c;fill-opacity:1;stroke:none;stroke-width:1.90622115"
         id="path1662"
         inkscape:connector-curvature="0" />
      <path
         d="m 442.31829,681.60258 q 0,0.31742 0.12835,0.50979 0.15224,0.22604 0.45191,0.22604 0.29018,0 0.43765,-0.27414 0.11413,-0.2116 0.11413,-0.50016 0,-0.34147 -0.12361,-0.54345 -0.14749,-0.24046 -0.44717,-0.24046 -0.31395,0 -0.45191,0.25489 -0.10935,0.20198 -0.10935,0.56749 z m -0.006,-1.33699 0.006,0.37032 q 0.13328,-0.20198 0.26163,-0.29337 0.1998,-0.14432 0.49949,-0.14432 0.44715,0 0.73735,0.32702 0.31871,0.35589 0.31871,0.99073 0,0.58191 -0.24737,0.95223 -0.28542,0.42322 -0.81821,0.42322 -0.29969,0 -0.49947,-0.14432 -0.11887,-0.0866 -0.21884,-0.25009 l -0.006,1.32256 h -0.66597 v -3.55408 l 0.6336,10e-5 z"
         style="font-style:normal;font-variant:normal;font-weight:bold;font-stretch:normal;font-size:2.50919676px;line-height:125%;font-family:Helvetica;-inkscape-font-specification:'Helvetica Bold';text-align:start;letter-spacing:0px;word-spacing:0px;writing-mode:lr-tb;text-anchor:start;fill:#706f6c;fill-opacity:1;stroke:none;stroke-width:1.90622115"
         id="path1664"
         inkscape:connector-curvature="0" />
      <path
         d="m 447.4115,682.07389 h 0.68501 q -0.12361,0.42803 -0.45667,0.63965 -0.28068,0.17786 -0.65647,0.17786 -0.58511,0 -0.89908,-0.30298 -0.36154,-0.3511 -0.36154,-1.09653 0,-0.43765 0.1856,-0.75986 0.30446,-0.53383 1.02277,-0.53383 0.48046,0 0.78489,0.2645 0.4091,0.35589 0.4091,1.14461 l -0.004,0.12018 h -1.73631 q 0.0428,0.34145 0.18086,0.48574 0.14275,0.13953 0.41862,0.13953 0.14749,0 0.26638,-0.0721 0.12257,-0.0721 0.16063,-0.20681 z m -1.00374,-0.78392 h 1.03228 q -0.0284,-0.28374 -0.19029,-0.42322 -0.13328,-0.11538 -0.32347,-0.11538 -0.23309,0 -0.36153,0.13953 -0.12844,0.13934 -0.15699,0.39907 z"
         style="font-style:normal;font-variant:normal;font-weight:bold;font-stretch:normal;font-size:2.50919676px;line-height:125%;font-family:Helvetica;-inkscape-font-specification:'Helvetica Bold';text-align:start;letter-spacing:0px;word-spacing:0px;writing-mode:lr-tb;text-anchor:start;fill:#706f6c;fill-opacity:1;stroke:none;stroke-width:1.90622115"
         id="path1666"
         inkscape:connector-curvature="0" />
      <path
         d="m 450.61601,680.9389 0.006,1.38507 q 0,0.21162 0.0381,0.29337 0.0381,0.0818 0.10938,0.1058 v 0.10101 h -0.71831 q -0.0476,-0.14433 -0.0618,-0.30299 -0.16172,0.17308 -0.29494,0.24528 -0.21883,0.12496 -0.52327,0.12496 -0.31872,0 -0.52802,-0.17307 -0.24261,-0.20198 -0.24261,-0.5723 0,-0.3607 0.19502,-0.56269 0.1998,-0.20679 0.54231,-0.25488 l 0.59462,-0.0914 q 0.13802,-0.0192 0.18561,-0.0673 0.0523,-0.0529 0.0523,-0.13455 0,-0.18764 -0.15697,-0.2549 -0.0999,-0.0433 -0.28542,-0.0433 -0.21884,0 -0.31873,0.12018 -0.0713,0.0866 -0.0857,0.23565 h -0.6422 q 0.0476,-0.52904 0.39485,-0.74063 0.25211,-0.15391 0.73257,-0.15391 0.38057,0 0.63743,0.12976 0.37005,0.18764 0.37005,0.61086 z m -0.64695,0.96667 v -0.32704 q -0.0476,0.0385 -0.15224,0.077 -0.10465,0.0337 -0.31872,0.0673 -0.2093,0.0337 -0.2997,0.0962 -0.13327,0.0914 -0.13327,0.28376 0,0.1587 0.10465,0.24046 0.0857,0.0673 0.20454,0.0673 0.23785,0 0.41386,-0.13953 0.18088,-0.13935 0.18088,-0.36547 z"
         style="font-style:normal;font-variant:normal;font-weight:bold;font-stretch:normal;font-size:2.50919676px;line-height:125%;font-family:Helvetica;-inkscape-font-specification:'Helvetica Bold';text-align:start;letter-spacing:0px;word-spacing:0px;writing-mode:lr-tb;text-anchor:start;fill:#706f6c;fill-opacity:1;stroke:none;stroke-width:1.90622115"
         id="path1668"
         inkscape:connector-curvature="0" />
      <path
         d="m 451.21369,682.82415 -0.006,-2.55856 h 0.63744 l 0.006,0.44246 q 0.13801,-0.25489 0.24737,-0.35107 0.17593,-0.1587 0.45191,-0.1587 l 0.13327,0.01 -0.006,0.68293 q -0.0428,-0.006 -0.0857,-0.006 -0.0381,-0.006 -0.0999,-0.006 -0.35202,0 -0.49947,0.19718 -0.11413,0.14912 -0.11413,0.4136 v 1.33218 z"
         style="font-style:normal;font-variant:normal;font-weight:bold;font-stretch:normal;font-size:2.50919676px;line-height:125%;font-family:Helvetica;-inkscape-font-specification:'Helvetica Bold';text-align:start;letter-spacing:0px;word-spacing:0px;writing-mode:lr-tb;text-anchor:start;fill:#706f6c;fill-opacity:1;stroke:none;stroke-width:1.90622115"
         id="path1670"
         inkscape:connector-curvature="0" />
      <path
         d="m 453.75238,679.37106 v 3.45309 h -0.66598 v -3.45309 z"
         style="font-style:normal;font-variant:normal;font-weight:bold;font-stretch:normal;font-size:2.50919676px;line-height:125%;font-family:Helvetica;-inkscape-font-specification:'Helvetica Bold';text-align:start;letter-spacing:0px;word-spacing:0px;writing-mode:lr-tb;text-anchor:start;fill:#706f6c;fill-opacity:1;stroke:none;stroke-width:1.90622115"
         id="path1672"
         inkscape:connector-curvature="0" />
      <path
         d="m 456.63676,680.26559 -0.86577,2.51526 q -0.24261,0.72621 -0.38533,0.88974 -0.16171,0.18265 -0.58987,0.18265 l -0.30445,-0.01 v -0.53864 l 0.12854,0.01 q 0.20456,0 0.28542,-0.0577 0.10939,-0.0769 0.15223,-0.32702 l -0.93713,-2.66436 h 0.74209 l 0.54706,1.88525 0.52327,-1.88525 z"
         style="font-style:normal;font-variant:normal;font-weight:bold;font-stretch:normal;font-size:2.50919676px;line-height:125%;font-family:Helvetica;-inkscape-font-specification:'Helvetica Bold';text-align:start;letter-spacing:0px;word-spacing:0px;writing-mode:lr-tb;text-anchor:start;fill:#706f6c;fill-opacity:1;stroke:none;stroke-width:1.90622115"
         id="path1674"
         inkscape:connector-curvature="0" />
      <path
         d="m 426.77057,693.04487 v -0.58192 h 1.4271 v 1.8612 h -0.47094 l -0.0713,-0.43284 q -0.20455,0.24046 -0.3663,0.34145 -0.29017,0.18285 -0.69928,0.18285 -0.66122,0 -1.0941,-0.44725 -0.4757,-0.49056 -0.4757,-1.36105 0,-0.76948 0.39958,-1.26484 0.45191,-0.56268 1.27013,-0.56268 0.71356,0 1.13692,0.40398 0.35677,0.34145 0.35677,0.75986 h -0.71355 q 0,-0.14912 -0.18067,-0.33184 -0.2331,-0.23565 -0.56608,-0.23565 -0.41862,0 -0.68024,0.28855 -0.2997,0.33186 -0.2997,0.95224 0,0.64925 0.31395,0.94743 0.25213,0.24047 0.68502,0.24047 0.22358,0 0.41386,-0.11539 0.31871,-0.19237 0.41387,-0.64444 z"
         style="font-style:normal;font-variant:normal;font-weight:bold;font-stretch:normal;font-size:2.50919676px;line-height:125%;font-family:Helvetica;-inkscape-font-specification:'Helvetica Bold';text-align:start;letter-spacing:0px;word-spacing:0px;writing-mode:lr-tb;text-anchor:start;fill:#706f6c;fill-opacity:1;stroke:none;stroke-width:1.90622115"
         id="path1631"
         inkscape:connector-curvature="0" />
      <path
         d="m 430.30667,693.57389 h 0.68501 q -0.12361,0.42803 -0.45667,0.63965 -0.28066,0.17786 -0.65647,0.17786 -0.58511,0 -0.89908,-0.30298 -0.36154,-0.3511 -0.36154,-1.09653 0,-0.43765 0.1856,-0.75986 0.30446,-0.53383 1.02277,-0.53383 0.48046,0 0.78491,0.2645 0.4091,0.35588 0.4091,1.14461 l -0.006,0.12018 h -1.73632 q 0.0428,0.34145 0.18067,0.48574 0.14276,0.13953 0.41862,0.13953 0.1475,0 0.2664,-0.0721 0.12462,-0.0721 0.16268,-0.2068 z m -1.00373,-0.78392 h 1.03227 q -0.0284,-0.28374 -0.19027,-0.42322 -0.13328,-0.11538 -0.32349,-0.11538 -0.23309,0 -0.36153,0.13953 -0.12844,0.13934 -0.15698,0.39907 z"
         style="font-style:normal;font-variant:normal;font-weight:bold;font-stretch:normal;font-size:2.50919676px;line-height:125%;font-family:Helvetica;-inkscape-font-specification:'Helvetica Bold';text-align:start;letter-spacing:0px;word-spacing:0px;writing-mode:lr-tb;text-anchor:start;fill:#706f6c;fill-opacity:1;stroke:none;stroke-width:1.90622115"
         id="path1633"
         inkscape:connector-curvature="0" />
      <path
         d="m 432.21252,691.07306 -0.004,0.69253 h 0.4186 v 0.48093 h -0.41386 l -0.004,1.38989 q 0,0.12496 0.0428,0.16828 0.0476,0.0385 0.23785,0.0385 l 0.13802,-0.01 v 0.50978 l -0.31395,0.01 h -0.0857 q -0.40434,0 -0.55655,-0.14911 -0.12361,-0.12018 -0.12361,-0.404 v -1.5534 h -0.34252 l -0.004,-0.48093 h 0.3425 l 0.006,-0.69253 z"
         style="font-style:normal;font-variant:normal;font-weight:bold;font-stretch:normal;font-size:2.50919676px;line-height:125%;font-family:Helvetica;-inkscape-font-specification:'Helvetica Bold';text-align:start;letter-spacing:0px;word-spacing:0px;writing-mode:lr-tb;text-anchor:start;fill:#706f6c;fill-opacity:1;stroke:none;stroke-width:1.90622115"
         id="path1635"
         inkscape:connector-curvature="0" />
      <path
         d="m 436.81412,693.04487 q 0,0.65887 -0.39007,1.01957 -0.35202,0.32704 -0.90384,0.32704 -0.55182,0 -0.90383,-0.32704 -0.39007,-0.3607 -0.39007,-1.01957 0,-0.65407 0.39007,-1.01957 0.35201,-0.32703 0.89908,-0.32703 0.54706,0 0.90383,0.32703 0.39483,0.3655 0.39483,1.01957 z m -0.685,0 q 0,-0.31742 -0.10939,-0.50978 -0.15224,-0.26933 -0.49948,-0.26933 -0.3425,0 -0.49473,0.26452 -0.11413,0.20198 -0.11413,0.51459 0,0.31742 0.10939,0.50979 0.15223,0.26931 0.49949,0.26931 0.3425,0 0.49474,-0.26452 0.11411,-0.20197 0.11411,-0.51458 z"
         style="font-style:normal;font-variant:normal;font-weight:bold;font-stretch:normal;font-size:2.50919676px;line-height:125%;font-family:Helvetica;-inkscape-font-specification:'Helvetica Bold';text-align:start;letter-spacing:0px;word-spacing:0px;writing-mode:lr-tb;text-anchor:start;fill:#706f6c;fill-opacity:1;stroke:none;stroke-width:1.90622115"
         id="path1637"
         inkscape:connector-curvature="0" />
      <path
         d="m 439.56524,691.76559 v 2.55856 h -0.63744 v -0.3607 q -0.25212,0.42803 -0.78015,0.42803 -0.39483,0 -0.61842,-0.22605 -0.24261,-0.24528 -0.24261,-0.71659 l -0.004,-1.68325 h 0.67072 v 1.58707 q 0,0.26932 0.13802,0.38474 0.10465,0.0866 0.29494,0.0866 0.20454,0 0.33774,-0.11538 0.17593,-0.15391 0.17593,-0.4665 v -1.47647 z"
         style="font-style:normal;font-variant:normal;font-weight:bold;font-stretch:normal;font-size:2.50919676px;line-height:125%;font-family:Helvetica;-inkscape-font-specification:'Helvetica Bold';text-align:start;letter-spacing:0px;word-spacing:0px;writing-mode:lr-tb;text-anchor:start;fill:#706f6c;fill-opacity:1;stroke:none;stroke-width:1.90622115"
         id="path1639"
         inkscape:connector-curvature="0" />
      <path
         d="m 440.93682,691.07306 -0.006,0.69253 h 0.41862 v 0.48093 h -0.41386 l -0.006,1.38989 q 0,0.12496 0.0428,0.16828 0.0476,0.0385 0.23785,0.0385 l 0.13801,-0.01 v 0.50978 l -0.31395,0.01 h -0.0857 q -0.40434,0 -0.55658,-0.14911 -0.1236,-0.12018 -0.1236,-0.404 v -1.5534 h -0.34251 l -0.006,-0.48093 h 0.34252 l 0.004,-0.69253 z"
         style="font-style:normal;font-variant:normal;font-weight:bold;font-stretch:normal;font-size:2.50919676px;line-height:125%;font-family:Helvetica;-inkscape-font-specification:'Helvetica Bold';text-align:start;letter-spacing:0px;word-spacing:0px;writing-mode:lr-tb;text-anchor:start;fill:#706f6c;fill-opacity:1;stroke:none;stroke-width:1.90622115"
         id="path1641"
         inkscape:connector-curvature="0" />
      <path
         d="m 445.53842,693.04487 q 0,0.65887 -0.39009,1.01957 -0.35201,0.32704 -0.90381,0.32704 -0.55182,0 -0.90384,-0.32704 -0.39007,-0.3607 -0.39007,-1.01957 0,-0.65407 0.39007,-1.01957 0.35202,-0.32703 0.89908,-0.32703 0.54706,0 0.90383,0.32703 0.39483,0.3655 0.39483,1.01957 z m -0.68502,0 q 0,-0.31742 -0.10939,-0.50978 -0.15224,-0.26933 -0.49948,-0.26933 -0.3425,0 -0.49473,0.26452 -0.11413,0.20198 -0.11413,0.51459 0,0.31742 0.10939,0.50979 0.15223,0.26931 0.49949,0.26931 0.3425,0 0.49472,-0.26452 0.11413,-0.20197 0.11413,-0.51458 z"
         style="font-style:normal;font-variant:normal;font-weight:bold;font-stretch:normal;font-size:2.50919676px;line-height:125%;font-family:Helvetica;-inkscape-font-specification:'Helvetica Bold';text-align:start;letter-spacing:0px;word-spacing:0px;writing-mode:lr-tb;text-anchor:start;fill:#706f6c;fill-opacity:1;stroke:none;stroke-width:1.90622115"
         id="path1643"
         inkscape:connector-curvature="0" />
      <path
         d="m 446.7768,692.24652 v 2.07763 h -0.66597 v -2.07763 h -0.36629 l -0.006,-0.48093 h 0.36629 v -0.20679 q 0,-0.37994 0.19027,-0.55307 0.19504,-0.17787 0.55658,-0.17787 l 0.33774,0.01 v 0.54345 h -0.1856 q -0.15698,0 -0.19503,0.0529 -0.0334,0.0529 -0.0334,0.23085 l -0.006,0.10101 h 0.43289 l 0.006,0.48093 z"
         style="font-style:normal;font-variant:normal;font-weight:bold;font-stretch:normal;font-size:2.50919676px;line-height:125%;font-family:Helvetica;-inkscape-font-specification:'Helvetica Bold';text-align:start;letter-spacing:0px;word-spacing:0px;writing-mode:lr-tb;text-anchor:start;fill:#706f6c;fill-opacity:1;stroke:none;stroke-width:1.90622115"
         id="path1645"
         inkscape:connector-curvature="0" />
      <path
         d="m 450.66961,693.06411 q 0,-0.34147 -0.12361,-0.54345 -0.1475,-0.24047 -0.44715,-0.24047 -0.31397,0 -0.45193,0.2549 -0.11413,0.20679 -0.11413,0.56749 0,0.31261 0.13328,0.50979 0.15223,0.22604 0.45191,0.22604 0.29017,0 0.43765,-0.27415 0.11398,-0.2116 0.11398,-0.50015 z m -1.11314,-2.19305 v 1.22638 q 0.16171,-0.22122 0.3425,-0.3078 0.18067,-0.0914 0.39958,-0.0914 0.44717,0 0.73735,0.32702 0.31871,0.35589 0.31871,0.99072 0,0.58192 -0.24737,0.95224 -0.28542,0.42322 -0.8182,0.42322 -0.22834,0 -0.4091,-0.0866 -0.2093,-0.10101 -0.32347,-0.30299 l -0.009,0.32223 h -0.65171 V 690.871 Z"
         style="font-style:normal;font-variant:normal;font-weight:bold;font-stretch:normal;font-size:2.50919676px;line-height:125%;font-family:Helvetica;-inkscape-font-specification:'Helvetica Bold';text-align:start;letter-spacing:0px;word-spacing:0px;writing-mode:lr-tb;text-anchor:start;fill:#706f6c;fill-opacity:1;stroke:none;stroke-width:1.90622115"
         id="path1647"
         inkscape:connector-curvature="0" />
      <path
         d="m 453.31132,693.57389 h 0.685 q -0.12361,0.42803 -0.45667,0.63965 -0.28066,0.17786 -0.65647,0.17786 -0.58511,0 -0.89908,-0.30298 -0.36153,-0.3511 -0.36153,-1.09653 0,-0.43765 0.1856,-0.75986 0.30445,-0.53383 1.02276,-0.53383 0.48046,0 0.78491,0.2645 0.40911,0.35588 0.40911,1.14461 l -0.006,0.12018 h -1.73632 q 0.0428,0.34145 0.18067,0.48574 0.14276,0.13953 0.41862,0.13953 0.1475,0 0.26639,-0.0721 0.12463,-0.0721 0.1627,-0.2068 z m -1.00373,-0.78392 h 1.03226 q -0.0284,-0.28374 -0.19029,-0.42322 -0.13308,-0.11538 -0.32346,-0.11538 -0.23309,0 -0.36154,0.13953 -0.12844,0.13934 -0.15697,0.39907 z"
         style="font-style:normal;font-variant:normal;font-weight:bold;font-stretch:normal;font-size:2.50919676px;line-height:125%;font-family:Helvetica;-inkscape-font-specification:'Helvetica Bold';text-align:start;letter-spacing:0px;word-spacing:0px;writing-mode:lr-tb;text-anchor:start;fill:#706f6c;fill-opacity:1;stroke:none;stroke-width:1.90622115"
         id="path1649"
         inkscape:connector-curvature="0" />
      <path
         d="m 456.78223,690.87106 v 3.45309 h -0.65171 v -0.32223 q -0.11887,0.20199 -0.32825,0.30298 -0.18067,0.0866 -0.41386,0.0866 -0.52803,0 -0.81344,-0.42322 -0.25213,-0.37513 -0.25213,-0.95224 0,-0.63484 0.31397,-0.99073 0.28542,-0.32702 0.73259,-0.32702 0.29017,0 0.48995,0.13455 0.13802,0.0914 0.24261,0.26452 l 0.009,-1.22638 z m -1.77437,2.19305 q 0,0.29337 0.10939,0.50015 0.14276,0.27415 0.43289,0.27415 0.2997,0 0.45667,-0.22604 0.13802,-0.19718 0.13802,-0.50979 0,-0.35589 -0.11413,-0.5627 -0.14276,-0.25969 -0.46145,-0.25969 -0.29493,0 -0.43763,0.24047 -0.12376,0.20679 -0.12376,0.54345 z"
         style="font-style:normal;font-variant:normal;font-weight:bold;font-stretch:normal;font-size:2.50919676px;line-height:125%;font-family:Helvetica;-inkscape-font-specification:'Helvetica Bold';text-align:start;letter-spacing:0px;word-spacing:0px;writing-mode:lr-tb;text-anchor:start;fill:#706f6c;fill-opacity:1;stroke:none;stroke-width:1.90622115"
         id="path1651"
         inkscape:connector-curvature="0" />
      <path
         d="m 427.68392,702.88568 v 0.61079 h -1.81243 v 0.72618 h 1.66495 v 0.61079 h -1.66495 v 0.89453 h 1.89329 v 0.61078 h -2.59257 v -3.45307 z"
         style="font-style:normal;font-variant:normal;font-weight:bold;font-stretch:normal;font-size:2.50919676px;line-height:125%;font-family:Helvetica;-inkscape-font-specification:'Helvetica Bold';text-align:start;letter-spacing:0px;word-spacing:0px;writing-mode:lr-tb;text-anchor:start;fill:#706f6c;fill-opacity:1;stroke:none;stroke-width:1.90622115"
         id="path1606"
         inkscape:connector-curvature="0" />
      <path
         d="m 430.34294,704.45352 0.006,1.38506 q 0,0.21162 0.0381,0.29338 0.0381,0.0816 0.10939,0.1058 v 0.10101 h -0.71829 q -0.0476,-0.14433 -0.0618,-0.30299 -0.16172,0.17308 -0.29494,0.24528 -0.21883,0.12497 -0.52329,0.12497 -0.3187,0 -0.52802,-0.17308 -0.24261,-0.202 -0.24261,-0.57232 0,-0.36069 0.19504,-0.56267 0.1998,-0.20681 0.5423,-0.2549 l 0.59463,-0.0914 q 0.13802,-0.0192 0.1856,-0.0673 0.0523,-0.0529 0.0523,-0.13474 0,-0.18764 -0.15698,-0.2549 -0.0999,-0.0433 -0.28543,-0.0433 -0.21882,0 -0.31871,0.12018 -0.0713,0.0866 -0.0857,0.23565 h -0.6422 q 0.0476,-0.52902 0.39483,-0.74063 0.25213,-0.15391 0.73259,-0.15391 0.38057,0 0.63743,0.12995 0.37003,0.18764 0.37003,0.61088 z m -0.64695,0.96665 v -0.32702 q -0.0476,0.0385 -0.15224,0.077 -0.10465,0.0337 -0.31872,0.0673 -0.20932,0.0337 -0.2997,0.0962 -0.13328,0.0914 -0.13328,0.28374 0,0.1587 0.10465,0.24047 0.0857,0.0673 0.20457,0.0673 0.23785,0 0.41386,-0.13953 0.18086,-0.13934 0.18086,-0.36547 z"
         style="font-style:normal;font-variant:normal;font-weight:bold;font-stretch:normal;font-size:2.50919676px;line-height:125%;font-family:Helvetica;-inkscape-font-specification:'Helvetica Bold';text-align:start;letter-spacing:0px;word-spacing:0px;writing-mode:lr-tb;text-anchor:start;fill:#706f6c;fill-opacity:1;stroke:none;stroke-width:1.90622115"
         id="path1608"
         inkscape:connector-curvature="0" />
      <path
         d="m 431.69222,703.08766 -0.006,0.69255 h 0.41862 v 0.48093 h -0.41386 l -0.006,1.38989 q 0,0.12497 0.0428,0.16828 0.0476,0.0385 0.23785,0.0385 l 0.13802,-0.01 v 0.50979 l -0.31397,0.01 h -0.0857 q -0.40434,0 -0.55658,-0.14911 -0.12361,-0.12018 -0.12361,-0.40398 v -1.5534 h -0.3425 l -0.006,-0.48093 h 0.3425 l 0.006,-0.69255 z"
         style="font-style:normal;font-variant:normal;font-weight:bold;font-stretch:normal;font-size:2.50919676px;line-height:125%;font-family:Helvetica;-inkscape-font-specification:'Helvetica Bold';text-align:start;letter-spacing:0px;word-spacing:0px;writing-mode:lr-tb;text-anchor:start;fill:#706f6c;fill-opacity:1;stroke:none;stroke-width:1.90622115"
         id="path1610"
         inkscape:connector-curvature="0" />
      <path
         d="m 435.60881,705.07871 q 0,-0.34145 -0.12361,-0.54345 -0.1475,-0.24046 -0.44715,-0.24046 -0.31397,0 -0.45191,0.2549 -0.11413,0.20678 -0.11413,0.56748 0,0.31261 0.13328,0.5098 0.15223,0.22603 0.45192,0.22603 0.29018,0 0.43764,-0.27412 0.11396,-0.21162 0.11396,-0.50018 z m -1.11314,-2.19303 v 1.22636 q 0.16171,-0.22122 0.3425,-0.30779 0.18067,-0.0914 0.3996,-0.0914 0.44715,0 0.73733,0.32702 0.31873,0.35589 0.31873,0.99073 0,0.58192 -0.24737,0.95224 -0.28542,0.42322 -0.8182,0.42322 -0.22834,0 -0.40911,-0.0866 -0.20931,-0.10101 -0.32348,-0.30298 l -0.009,0.32223 h -0.65171 v -3.45307 z"
         style="font-style:normal;font-variant:normal;font-weight:bold;font-stretch:normal;font-size:2.50919676px;line-height:125%;font-family:Helvetica;-inkscape-font-specification:'Helvetica Bold';text-align:start;letter-spacing:0px;word-spacing:0px;writing-mode:lr-tb;text-anchor:start;fill:#706f6c;fill-opacity:1;stroke:none;stroke-width:1.90622115"
         id="path1612"
         inkscape:connector-curvature="0" />
      <path
         d="m 436.75681,706.33875 -0.006,-2.55854 h 0.63746 l 0.004,0.44244 q 0.13801,-0.25487 0.24737,-0.35107 0.17593,-0.1587 0.45193,-0.1587 l 0.13308,0.01 -0.004,0.68291 q -0.0428,-0.006 -0.0857,-0.006 -0.0381,-0.006 -0.0999,-0.006 -0.35202,0 -0.4995,0.19719 -0.11413,0.14911 -0.11413,0.41359 v 1.33218 z"
         style="font-style:normal;font-variant:normal;font-weight:bold;font-stretch:normal;font-size:2.50919676px;line-height:125%;font-family:Helvetica;-inkscape-font-specification:'Helvetica Bold';text-align:start;letter-spacing:0px;word-spacing:0px;writing-mode:lr-tb;text-anchor:start;fill:#706f6c;fill-opacity:1;stroke:none;stroke-width:1.90622115"
         id="path1614"
         inkscape:connector-curvature="0" />
      <path
         d="m 440.09943,705.58851 h 0.68502 q -0.12361,0.42801 -0.45667,0.63963 -0.28068,0.17787 -0.65647,0.17787 -0.58511,0 -0.89908,-0.30299 -0.36153,-0.35108 -0.36153,-1.09653 0,-0.43763 0.1856,-0.75986 0.30445,-0.53383 1.02276,-0.53383 0.48044,0 0.7849,0.2645 0.4091,0.35591 0.4091,1.14462 l -0.004,0.12017 h -1.73632 q 0.0428,0.34147 0.18067,0.48574 0.14276,0.13954 0.41862,0.13954 0.1475,0 0.26638,-0.0721 0.12276,-0.0721 0.16081,-0.20679 z m -1.00373,-0.78392 h 1.03228 q -0.0286,-0.28376 -0.19029,-0.42322 -0.13327,-0.11538 -0.32346,-0.11538 -0.2331,0 -0.36154,0.13953 -0.12844,0.13935 -0.15699,0.39907 z"
         style="font-style:normal;font-variant:normal;font-weight:bold;font-stretch:normal;font-size:2.50919676px;line-height:125%;font-family:Helvetica;-inkscape-font-specification:'Helvetica Bold';text-align:start;letter-spacing:0px;word-spacing:0px;writing-mode:lr-tb;text-anchor:start;fill:#706f6c;fill-opacity:1;stroke:none;stroke-width:1.90622115"
         id="path1616"
         inkscape:connector-curvature="0" />
      <path
         d="m 443.30395,704.45352 0.006,1.38506 q 0,0.21162 0.0381,0.29338 0.0381,0.0816 0.10939,0.1058 v 0.10101 h -0.71831 q -0.0476,-0.14433 -0.0618,-0.30299 -0.16171,0.17308 -0.29493,0.24528 -0.21884,0.12497 -0.52327,0.12497 -0.31873,0 -0.52805,-0.17308 -0.24259,-0.202 -0.24259,-0.57232 0,-0.36069 0.19503,-0.56267 0.1998,-0.20681 0.5423,-0.2549 l 0.59463,-0.0914 q 0.13801,-0.0192 0.1856,-0.0673 0.0523,-0.0529 0.0523,-0.13474 0,-0.18764 -0.15697,-0.2549 -0.0999,-0.0433 -0.28542,-0.0433 -0.21884,0 -0.31873,0.12018 -0.0713,0.0866 -0.0857,0.23565 h -0.64219 q 0.0476,-0.52902 0.39484,-0.74063 0.25211,-0.15391 0.73257,-0.15391 0.38057,0 0.63744,0.12995 0.37004,0.18764 0.37004,0.61088 z m -0.64695,0.96665 v -0.32702 q -0.0476,0.0385 -0.15223,0.077 -0.10465,0.0337 -0.31873,0.0673 -0.2093,0.0337 -0.29969,0.0962 -0.13328,0.0914 -0.13328,0.28374 0,0.1587 0.10465,0.24047 0.0857,0.0673 0.20454,0.0673 0.23785,0 0.41386,-0.13953 0.18088,-0.13934 0.18088,-0.36547 z"
         style="font-style:normal;font-variant:normal;font-weight:bold;font-stretch:normal;font-size:2.50919676px;line-height:125%;font-family:Helvetica;-inkscape-font-specification:'Helvetica Bold';text-align:start;letter-spacing:0px;word-spacing:0px;writing-mode:lr-tb;text-anchor:start;fill:#706f6c;fill-opacity:1;stroke:none;stroke-width:1.90622115"
         id="path1618"
         inkscape:connector-curvature="0" />
      <path
         d="m 444.5914,705.5308 v 0.80795 h -0.66599 v -3.45307 h 0.66123 v 1.86601 l 0.83723,-0.97148 h 0.81821 l -0.89432,0.99071 0.92287,1.56783 h -0.79919 l -0.60888,-1.09652 z"
         style="font-style:normal;font-variant:normal;font-weight:bold;font-stretch:normal;font-size:2.50919676px;line-height:125%;font-family:Helvetica;-inkscape-font-specification:'Helvetica Bold';text-align:start;letter-spacing:0px;word-spacing:0px;writing-mode:lr-tb;text-anchor:start;fill:#706f6c;fill-opacity:1;stroke:none;stroke-width:1.90622115"
         id="path1620"
         inkscape:connector-curvature="0" />
      <path
         d="m 447.41789,704.26114 v 2.07761 h -0.66598 v -2.07761 h -0.3663 l -0.006,-0.48093 h 0.3663 v -0.20681 q 0,-0.37992 0.19028,-0.55307 0.19503,-0.17787 0.55656,-0.17787 l 0.33776,0.01 v 0.54345 h -0.1856 q -0.15697,0 -0.19504,0.0529 -0.0334,0.0529 -0.0334,0.23084 l -0.006,0.10101 h 0.43288 l 0.006,0.48093 z"
         style="font-style:normal;font-variant:normal;font-weight:bold;font-stretch:normal;font-size:2.50919676px;line-height:125%;font-family:Helvetica;-inkscape-font-specification:'Helvetica Bold';text-align:start;letter-spacing:0px;word-spacing:0px;writing-mode:lr-tb;text-anchor:start;fill:#706f6c;fill-opacity:1;stroke:none;stroke-width:1.90622115"
         id="path1622"
         inkscape:connector-curvature="0" />
      <path
         d="m 450.28153,704.45352 0.006,1.38506 q 0,0.21162 0.0381,0.29338 0.0381,0.0816 0.10939,0.1058 v 0.10101 h -0.71831 q -0.0476,-0.14433 -0.0618,-0.30299 -0.16172,0.17308 -0.29494,0.24528 -0.21882,0.12497 -0.52327,0.12497 -0.31872,0 -0.52802,-0.17308 -0.24261,-0.202 -0.24261,-0.57232 0,-0.36069 0.19504,-0.56267 0.19978,-0.20681 0.54228,-0.2549 l 0.59463,-0.0914 q 0.13802,-0.0192 0.1856,-0.0673 0.0523,-0.0529 0.0523,-0.13474 0,-0.18764 -0.15698,-0.2549 -0.0999,-0.0433 -0.28541,-0.0433 -0.21882,0 -0.31873,0.12018 -0.0713,0.0866 -0.0857,0.23565 h -0.64222 q 0.0476,-0.52902 0.39485,-0.74063 0.25213,-0.15391 0.73257,-0.15391 0.38057,0 0.63745,0.12995 0.37005,0.18764 0.37005,0.61088 z m -0.64695,0.96665 v -0.32702 q -0.0476,0.0385 -0.15224,0.077 -0.10465,0.0337 -0.31873,0.0673 -0.2093,0.0337 -0.29969,0.0962 -0.13309,0.0914 -0.13309,0.28374 0,0.1587 0.10465,0.24047 0.0857,0.0673 0.20454,0.0673 0.23786,0 0.41386,-0.13953 0.1807,-0.13934 0.1807,-0.36547 z"
         style="font-style:normal;font-variant:normal;font-weight:bold;font-stretch:normal;font-size:2.50919676px;line-height:125%;font-family:Helvetica;-inkscape-font-specification:'Helvetica Bold';text-align:start;letter-spacing:0px;word-spacing:0px;writing-mode:lr-tb;text-anchor:start;fill:#706f6c;fill-opacity:1;stroke:none;stroke-width:1.90622115"
         id="path1624"
         inkscape:connector-curvature="0" />
      <path
         d="m 452.96755,704.55932 h -0.65172 q -0.0286,-0.16349 -0.0952,-0.23085 -0.10465,-0.1058 -0.35201,-0.1058 -0.2426,0 -0.34251,0.0819 -0.0713,0.0577 -0.0713,0.16828 0,0.14912 0.4091,0.24046 0.58989,0.12976 0.7659,0.21162 0.41386,0.19717 0.41386,0.60117 0,0.49053 -0.40436,0.71658 -0.29494,0.16349 -0.70404,0.16349 -0.50899,0 -0.82296,-0.18285 -0.39483,-0.23084 -0.39483,-0.70215 h 0.68501 q 0,0.17787 0.1236,0.27893 0.12835,0.0962 0.42814,0.0962 0.22358,0 0.33774,-0.0962 0.0857,-0.0721 0.0857,-0.16828 0,-0.1587 -0.40434,-0.25009 -0.60414,-0.13474 -0.76112,-0.20681 -0.40912,-0.19235 -0.40912,-0.60595 0,-0.33666 0.21408,-0.56751 0.27114,-0.28855 0.80868,-0.28855 0.48047,0 0.75637,0.14912 0.38529,0.20679 0.38529,0.69734 z"
         style="font-style:normal;font-variant:normal;font-weight:bold;font-stretch:normal;font-size:2.50919676px;line-height:125%;font-family:Helvetica;-inkscape-font-specification:'Helvetica Bold';text-align:start;letter-spacing:0px;word-spacing:0px;writing-mode:lr-tb;text-anchor:start;fill:#706f6c;fill-opacity:1;stroke:none;stroke-width:1.90622115"
         id="path1626"
         inkscape:connector-curvature="0" />
      <path
         d="m 454.27878,703.08766 -0.006,0.69255 h 0.41862 v 0.48093 h -0.41386 l -0.006,1.38989 q 0,0.12497 0.0428,0.16828 0.0476,0.0385 0.23785,0.0385 l 0.13802,-0.01 v 0.50979 l -0.31397,0.01 h -0.0857 q -0.40435,0 -0.55656,-0.14911 -0.12361,-0.12018 -0.12361,-0.40398 v -1.5534 h -0.3425 l -0.006,-0.48093 h 0.3425 l 0.006,-0.69255 z"
         style="font-style:normal;font-variant:normal;font-weight:bold;font-stretch:normal;font-size:2.50919676px;line-height:125%;font-family:Helvetica;-inkscape-font-specification:'Helvetica Bold';text-align:start;letter-spacing:0px;word-spacing:0px;writing-mode:lr-tb;text-anchor:start;fill:#706f6c;fill-opacity:1;stroke:none;stroke-width:1.90622115"
         id="path1628"
         inkscape:connector-curvature="0" />
      <path
         d="m 425.17221,717.34099 v -3.45309 h 1.50798 q 0.77064,0 1.12742,0.57713 0.26162,0.42322 0.26162,1.06766 0,0.69734 -0.28542,1.17827 -0.37105,0.63003 -1.13217,0.63003 z m 0.69452,-2.85673 0.006,2.26038 h 0.69453 q 0.39959,0 0.60413,-0.36551 0.17119,-0.3078 0.17119,-0.79354 0,-0.6733 -0.28067,-0.93301 -0.18068,-0.16829 -0.509,-0.16829 z"
         style="font-style:normal;font-variant:normal;font-weight:bold;font-stretch:normal;font-size:2.50919676px;line-height:125%;font-family:Helvetica;-inkscape-font-specification:'Helvetica Bold';text-align:start;letter-spacing:0px;word-spacing:0px;writing-mode:lr-tb;text-anchor:start;fill:#706f6c;fill-opacity:1;stroke:none;stroke-width:1.90622115"
         id="path1591"
         inkscape:connector-curvature="0" />
      <path
         d="m 428.55282,717.34099 -0.006,-2.55856 h 0.63744 l 0.006,0.44246 q 0.13801,-0.25489 0.24736,-0.35107 0.17594,-0.1587 0.45191,-0.1587 l 0.13328,0.01 -0.006,0.68293 q -0.0428,-0.006 -0.0857,-0.006 -0.0381,-0.006 -0.0999,-0.006 -0.35202,0 -0.49948,0.19719 -0.11412,0.14911 -0.11412,0.41359 v 1.33218 z"
         style="font-style:normal;font-variant:normal;font-weight:bold;font-stretch:normal;font-size:2.50919676px;line-height:125%;font-family:Helvetica;-inkscape-font-specification:'Helvetica Bold';text-align:start;letter-spacing:0px;word-spacing:0px;writing-mode:lr-tb;text-anchor:start;fill:#706f6c;fill-opacity:1;stroke:none;stroke-width:1.90622115"
         id="path1593"
         inkscape:connector-curvature="0" />
      <path
         d="m 431.89544,716.59073 h 0.685 q -0.12361,0.42803 -0.45667,0.63963 -0.28066,0.17787 -0.65647,0.17787 -0.58511,0 -0.89908,-0.30297 -0.36151,-0.3511 -0.36151,-1.09653 0,-0.43765 0.18541,-0.75986 0.30445,-0.53385 1.02276,-0.53385 0.48046,0 0.78492,0.26452 0.4091,0.35589 0.4091,1.14462 l -0.006,0.12017 h -1.73632 q 0.0428,0.34146 0.18068,0.48574 0.14275,0.13954 0.41861,0.13954 0.1475,0 0.26641,-0.0721 0.1248,-0.0721 0.16285,-0.20681 z m -1.00373,-0.78392 h 1.03228 q -0.0286,-0.28374 -0.19029,-0.42322 -0.13327,-0.11538 -0.32348,-0.11538 -0.23309,0 -0.36154,0.13953 -0.12842,0.13935 -0.15697,0.39907 z"
         style="font-style:normal;font-variant:normal;font-weight:bold;font-stretch:normal;font-size:2.50919676px;line-height:125%;font-family:Helvetica;-inkscape-font-specification:'Helvetica Bold';text-align:start;letter-spacing:0px;word-spacing:0px;writing-mode:lr-tb;text-anchor:start;fill:#706f6c;fill-opacity:1;stroke:none;stroke-width:1.90622115"
         id="path1595"
         inkscape:connector-curvature="0" />
      <path
         d="m 435.13801,715.56154 h -0.65171 q -0.0284,-0.16349 -0.0952,-0.23085 -0.10465,-0.1058 -0.35202,-0.1058 -0.24261,0 -0.34252,0.0819 -0.0713,0.0577 -0.0713,0.16828 0,0.14912 0.4091,0.24046 0.58987,0.12995 0.76588,0.2116 0.41386,0.19719 0.41386,0.60117 0,0.49055 -0.40434,0.71658 -0.29494,0.16349 -0.70404,0.16349 -0.50901,0 -0.82298,-0.18266 -0.39483,-0.23086 -0.39483,-0.70217 h 0.68503 q 0,0.17787 0.1236,0.27896 0.12854,0.0962 0.42814,0.0962 0.22358,0 0.33774,-0.0962 0.0857,-0.0721 0.0857,-0.16829 0,-0.1587 -0.40434,-0.25007 -0.60414,-0.13474 -0.76112,-0.2068 -0.4091,-0.19238 -0.4091,-0.60598 0,-0.33664 0.21406,-0.56748 0.27114,-0.28858 0.80868,-0.28858 0.48046,0 0.75638,0.14912 0.38529,0.20664 0.38529,0.69717 z"
         style="font-style:normal;font-variant:normal;font-weight:bold;font-stretch:normal;font-size:2.50919676px;line-height:125%;font-family:Helvetica;-inkscape-font-specification:'Helvetica Bold';text-align:start;letter-spacing:0px;word-spacing:0px;writing-mode:lr-tb;text-anchor:start;fill:#706f6c;fill-opacity:1;stroke:none;stroke-width:1.90622115"
         id="path1597"
         inkscape:connector-curvature="0" />
      <path
         d="m 437.78596,715.56154 h -0.65171 q -0.0286,-0.16349 -0.0952,-0.23085 -0.10465,-0.1058 -0.35202,-0.1058 -0.24261,0 -0.3425,0.0819 -0.0713,0.0577 -0.0713,0.16828 0,0.14912 0.4091,0.24046 0.58987,0.12995 0.76588,0.2116 0.41386,0.19719 0.41386,0.60117 0,0.49055 -0.40435,0.71658 -0.29493,0.16349 -0.70403,0.16349 -0.50901,0 -0.82296,-0.18266 -0.39485,-0.23086 -0.39485,-0.70217 h 0.68502 q 0,0.17787 0.12361,0.27896 0.12835,0.0962 0.42812,0.0962 0.22359,0 0.33776,-0.0962 0.0857,-0.0721 0.0857,-0.16829 0,-0.1587 -0.40434,-0.25007 -0.60415,-0.13474 -0.76112,-0.2068 -0.4091,-0.19238 -0.4091,-0.60598 0,-0.33664 0.21405,-0.56748 0.27116,-0.28858 0.80869,-0.28858 0.48046,0 0.75638,0.14912 0.38527,0.20664 0.38527,0.69717 z"
         style="font-style:normal;font-variant:normal;font-weight:bold;font-stretch:normal;font-size:2.50919676px;line-height:125%;font-family:Helvetica;-inkscape-font-specification:'Helvetica Bold';text-align:start;letter-spacing:0px;word-spacing:0px;writing-mode:lr-tb;text-anchor:start;fill:#706f6c;fill-opacity:1;stroke:none;stroke-width:1.90622115"
         id="path1599"
         inkscape:connector-curvature="0" />
      <path
         d="m 441.95304,714.78243 v 2.55856 h -0.63744 v -0.3607 q -0.25212,0.42801 -0.78015,0.42801 -0.39484,0 -0.61842,-0.22603 -0.24261,-0.24527 -0.24261,-0.71658 l -0.006,-1.68326 h 0.67075 v 1.58708 q 0,0.26931 0.13802,0.38473 0.10465,0.0866 0.29493,0.0866 0.20454,0 0.33774,-0.11538 0.17594,-0.15391 0.17594,-0.4665 v -1.47646 z"
         style="font-style:normal;font-variant:normal;font-weight:bold;font-stretch:normal;font-size:2.50919676px;line-height:125%;font-family:Helvetica;-inkscape-font-specification:'Helvetica Bold';text-align:start;letter-spacing:0px;word-spacing:0px;writing-mode:lr-tb;text-anchor:start;fill:#706f6c;fill-opacity:1;stroke:none;stroke-width:1.90622115"
         id="path1601"
         inkscape:connector-curvature="0" />
      <path
         d="m 443.20093,716.11942 q 0,0.31742 0.12854,0.50978 0.15224,0.22605 0.45191,0.22605 0.29018,0 0.43766,-0.27414 0.11412,-0.2116 0.11412,-0.50016 0,-0.34147 -0.1236,-0.54345 -0.1475,-0.24046 -0.44716,-0.24046 -0.31396,0 -0.45192,0.25488 -0.10955,0.20199 -0.10955,0.5675 z m -0.006,-1.33699 0.006,0.37032 q 0.13328,-0.20198 0.26165,-0.29336 0.19978,-0.14433 0.49947,-0.14433 0.44718,0 0.73735,0.32704 0.31873,0.35589 0.31873,0.99071 0,0.58194 -0.24737,0.95226 -0.28542,0.4232 -0.8182,0.4232 -0.2997,0 -0.4995,-0.14433 -0.11887,-0.0866 -0.21882,-0.25009 l -0.006,1.32256 h -0.66599 v -3.55407 l 0.63361,9e-5 z"
         style="font-style:normal;font-variant:normal;font-weight:bold;font-stretch:normal;font-size:2.50919676px;line-height:125%;font-family:Helvetica;-inkscape-font-specification:'Helvetica Bold';text-align:start;letter-spacing:0px;word-spacing:0px;writing-mode:lr-tb;text-anchor:start;fill:#706f6c;fill-opacity:1;stroke:none;stroke-width:1.90622115"
         id="path1603"
         inkscape:connector-curvature="0" />
      <path
         d="m 426.62311,726.48441 v 2.84228 h -0.71356 v -2.84228 h -1.03228 v -0.61079 h 2.7781 v 0.61079 z"
         style="font-style:normal;font-variant:normal;font-weight:bold;font-stretch:normal;font-size:2.50919676px;line-height:125%;font-family:Helvetica;-inkscape-font-specification:'Helvetica Bold';text-align:start;letter-spacing:0px;word-spacing:0px;writing-mode:lr-tb;text-anchor:start;fill:#706f6c;fill-opacity:1;stroke:none;stroke-width:1.90622115"
         id="path1560"
         inkscape:connector-curvature="0" />
      <path
         d="m 429.72044,727.44146 0.006,1.38508 q 0,0.2116 0.0381,0.29336 0.0381,0.0816 0.10939,0.1058 v 0.10101 h -0.71831 q -0.0476,-0.14432 -0.0618,-0.30299 -0.16171,0.17308 -0.29493,0.24528 -0.21882,0.12497 -0.52327,0.12497 -0.31871,0 -0.52803,-0.17308 -0.24261,-0.20198 -0.24261,-0.5723 0,-0.36069 0.19504,-0.56269 0.19981,-0.20679 0.54231,-0.2549 l 0.59462,-0.0914 q 0.13802,-0.0192 0.18561,-0.0673 0.0523,-0.0529 0.0523,-0.13474 0,-0.18764 -0.15697,-0.25488 -0.0999,-0.0433 -0.28542,-0.0433 -0.21882,0 -0.31871,0.12018 -0.0713,0.0866 -0.0857,0.23565 h -0.6422 q 0.0476,-0.52902 0.39483,-0.74062 0.25213,-0.1539 0.73259,-0.1539 0.38055,0 0.63743,0.12975 0.37001,0.18784 0.37001,0.61104 z m -0.64695,0.96667 v -0.32704 q -0.0476,0.0385 -0.15223,0.077 -0.10465,0.0337 -0.31871,0.0673 -0.20932,0.0337 -0.2997,0.0962 -0.13327,0.0914 -0.13327,0.28374 0,0.1587 0.10465,0.24047 0.0857,0.0673 0.20456,0.0673 0.23785,0 0.41386,-0.13953 0.18084,-0.13934 0.18084,-0.36545 z"
         style="font-style:normal;font-variant:normal;font-weight:bold;font-stretch:normal;font-size:2.50919676px;line-height:125%;font-family:Helvetica;-inkscape-font-specification:'Helvetica Bold';text-align:start;letter-spacing:0px;word-spacing:0px;writing-mode:lr-tb;text-anchor:start;fill:#706f6c;fill-opacity:1;stroke:none;stroke-width:1.90622115"
         id="path1562"
         inkscape:connector-curvature="0" />
      <path
         d="m 431.00789,728.51874 v 0.80795 h -0.66599 v -3.45307 h 0.66123 v 1.86601 l 0.83723,-0.97148 h 0.81821 l -0.89432,0.99073 0.92287,1.56781 h -0.79919 l -0.6089,-1.0965 z"
         style="font-style:normal;font-variant:normal;font-weight:bold;font-stretch:normal;font-size:2.50919676px;line-height:125%;font-family:Helvetica;-inkscape-font-specification:'Helvetica Bold';text-align:start;letter-spacing:0px;word-spacing:0px;writing-mode:lr-tb;text-anchor:start;fill:#706f6c;fill-opacity:1;stroke:none;stroke-width:1.90622115"
         id="path1564"
         inkscape:connector-curvature="0" />
      <path
         d="m 434.55268,728.57645 h 0.68502 q -0.12361,0.42803 -0.45669,0.63963 -0.28066,0.17787 -0.65647,0.17787 -0.58511,0 -0.89906,-0.30299 -0.36154,-0.35108 -0.36154,-1.09651 0,-0.43765 0.18561,-0.75988 0.30443,-0.53383 1.02274,-0.53383 0.48046,0 0.78491,0.26452 0.40911,0.35589 0.40911,1.14462 l -0.006,0.12017 h -1.7363 q 0.0428,0.34146 0.18067,0.48574 0.14276,0.13954 0.4186,0.13954 0.1475,0 0.2664,-0.0721 0.12464,-0.0721 0.16269,-0.20681 z m -1.00373,-0.78392 h 1.03228 q -0.0286,-0.28374 -0.19029,-0.42322 -0.13327,-0.11538 -0.32348,-0.11538 -0.2331,0 -0.36152,0.13953 -0.12844,0.13935 -0.15699,0.39907 z"
         style="font-style:normal;font-variant:normal;font-weight:bold;font-stretch:normal;font-size:2.50919676px;line-height:125%;font-family:Helvetica;-inkscape-font-specification:'Helvetica Bold';text-align:start;letter-spacing:0px;word-spacing:0px;writing-mode:lr-tb;text-anchor:start;fill:#706f6c;fill-opacity:1;stroke:none;stroke-width:1.90622115"
         id="path1566"
         inkscape:connector-curvature="0" />
      <path
         d="m 439.47136,728.04743 q 0,0.65887 -0.39007,1.01957 -0.35202,0.32702 -0.90384,0.32702 -0.55182,0 -0.90384,-0.32702 -0.39006,-0.3607 -0.39006,-1.01957 0,-0.65406 0.39006,-1.01957 0.35202,-0.32704 0.89908,-0.32704 0.54706,0 0.90384,0.32704 0.39483,0.36551 0.39483,1.01957 z m -0.685,0 q 0,-0.31742 -0.10939,-0.50979 -0.15224,-0.26931 -0.4995,-0.26931 -0.3425,0 -0.49474,0.2645 -0.11413,0.20199 -0.11413,0.5146 0,0.3174 0.10939,0.50978 0.15224,0.26933 0.49948,0.26933 0.3425,0 0.49474,-0.26452 0.11415,-0.20198 0.11415,-0.51459 z"
         style="font-style:normal;font-variant:normal;font-weight:bold;font-stretch:normal;font-size:2.50919676px;line-height:125%;font-family:Helvetica;-inkscape-font-specification:'Helvetica Bold';text-align:start;letter-spacing:0px;word-spacing:0px;writing-mode:lr-tb;text-anchor:start;fill:#706f6c;fill-opacity:1;stroke:none;stroke-width:1.90622115"
         id="path1568"
         inkscape:connector-curvature="0" />
      <path
         d="m 442.22248,726.76815 v 2.55854 h -0.63744 v -0.3607 q -0.25213,0.42803 -0.78015,0.42803 -0.39483,0 -0.61841,-0.22603 -0.24261,-0.24527 -0.24261,-0.71658 l -0.006,-1.68326 h 0.67072 v 1.58708 q 0,0.26931 0.13802,0.38473 0.10465,0.0866 0.29494,0.0866 0.20456,0 0.33774,-0.11538 0.17593,-0.15391 0.17593,-0.46652 v -1.47644 z"
         style="font-style:normal;font-variant:normal;font-weight:bold;font-stretch:normal;font-size:2.50919676px;line-height:125%;font-family:Helvetica;-inkscape-font-specification:'Helvetica Bold';text-align:start;letter-spacing:0px;word-spacing:0px;writing-mode:lr-tb;text-anchor:start;fill:#706f6c;fill-opacity:1;stroke:none;stroke-width:1.90622115"
         id="path1570"
         inkscape:connector-curvature="0" />
      <path
         d="m 443.59405,726.07562 -0.006,0.69253 h 0.41862 v 0.48093 h -0.41386 l -0.006,1.38989 q 0,0.12497 0.0428,0.16829 0.0476,0.0385 0.23786,0.0385 l 0.13801,-0.01 v 0.50977 l -0.31395,0.01 h -0.0857 q -0.40434,0 -0.55658,-0.14912 -0.12361,-0.12018 -0.12361,-0.40398 v -1.5534 h -0.34252 l -0.006,-0.48093 h 0.34252 l 0.006,-0.69253 z"
         style="font-style:normal;font-variant:normal;font-weight:bold;font-stretch:normal;font-size:2.50919676px;line-height:125%;font-family:Helvetica;-inkscape-font-specification:'Helvetica Bold';text-align:start;letter-spacing:0px;word-spacing:0px;writing-mode:lr-tb;text-anchor:start;fill:#706f6c;fill-opacity:1;stroke:none;stroke-width:1.90622115"
         id="path1572"
         inkscape:connector-curvature="0" />
      <path
         d="m 446.50217,726.07562 -0.006,0.69253 h 0.41862 v 0.48093 h -0.41386 l -0.006,1.38989 q 0,0.12497 0.0429,0.16829 0.0476,0.0385 0.23785,0.0385 l 0.13801,-0.01 v 0.50977 l -0.31396,0.01 h -0.0857 q -0.40434,0 -0.55656,-0.14912 -0.1236,-0.12018 -0.1236,-0.40398 v -1.5534 h -0.3425 l -0.006,-0.48093 h 0.3425 l 0.006,-0.69253 z"
         style="font-style:normal;font-variant:normal;font-weight:bold;font-stretch:normal;font-size:2.50919676px;line-height:125%;font-family:Helvetica;-inkscape-font-specification:'Helvetica Bold';text-align:start;letter-spacing:0px;word-spacing:0px;writing-mode:lr-tb;text-anchor:start;fill:#706f6c;fill-opacity:1;stroke:none;stroke-width:1.90622115"
         id="path1574"
         inkscape:connector-curvature="0" />
      <path
         d="m 449.62745,727.55688 0.006,1.76981 h -0.66599 v -1.5534 q 0,-0.21641 -0.0571,-0.32221 -0.0952,-0.18285 -0.37581,-0.18285 -0.22833,0 -0.37579,0.15391 -0.14749,0.15391 -0.14749,0.43765 v 1.46682 H 447.345 v -3.45306 h 0.66123 v 1.22638 q 0.0809,-0.16829 0.28067,-0.28377 0.19979,-0.11538 0.46143,-0.11538 0.38531,0 0.63268,0.22603 0.24644,0.22128 0.24644,0.63007 z"
         style="font-style:normal;font-variant:normal;font-weight:bold;font-stretch:normal;font-size:2.50919676px;line-height:125%;font-family:Helvetica;-inkscape-font-specification:'Helvetica Bold';text-align:start;letter-spacing:0px;word-spacing:0px;writing-mode:lr-tb;text-anchor:start;fill:#706f6c;fill-opacity:1;stroke:none;stroke-width:1.90622115"
         id="path1576"
         inkscape:connector-curvature="0" />
      <path
         d="m 451.74113,728.57645 h 0.685 q -0.1236,0.42803 -0.45666,0.63963 -0.28068,0.17787 -0.65647,0.17787 -0.58512,0 -0.89908,-0.30299 -0.36154,-0.35108 -0.36154,-1.09651 0,-0.43765 0.1856,-0.75988 0.30445,-0.53383 1.02277,-0.53383 0.48046,0 0.78489,0.26452 0.40912,0.35589 0.40912,1.14462 l -0.006,0.12017 h -1.73631 q 0.0428,0.34146 0.18067,0.48574 0.14275,0.13954 0.41862,0.13954 0.14749,0 0.26638,-0.0721 0.12463,-0.0721 0.1627,-0.20681 z m -1.00373,-0.78392 h 1.03226 q -0.0284,-0.28374 -0.19028,-0.42322 -0.13309,-0.11538 -0.32347,-0.11538 -0.23309,0 -0.36153,0.13953 -0.12845,0.13935 -0.15698,0.39907 z"
         style="font-style:normal;font-variant:normal;font-weight:bold;font-stretch:normal;font-size:2.50919676px;line-height:125%;font-family:Helvetica;-inkscape-font-specification:'Helvetica Bold';text-align:start;letter-spacing:0px;word-spacing:0px;writing-mode:lr-tb;text-anchor:start;fill:#706f6c;fill-opacity:1;stroke:none;stroke-width:1.90622115"
         id="path1578"
         inkscape:connector-curvature="0" />
      <path
         d="m 454.9663,726.07562 -0.006,0.69253 h 0.41861 v 0.48093 h -0.41386 l -0.006,1.38989 q 0,0.12497 0.0428,0.16829 0.0476,0.0385 0.23785,0.0385 l 0.13802,-0.01 v 0.50977 l -0.31397,0.01 h -0.0857 q -0.40434,0 -0.55658,-0.14912 -0.12361,-0.12018 -0.12361,-0.40398 v -1.5534 h -0.3425 l -0.006,-0.48093 h 0.34252 l 0.004,-0.69253 z"
         style="font-style:normal;font-variant:normal;font-weight:bold;font-stretch:normal;font-size:2.50919676px;line-height:125%;font-family:Helvetica;-inkscape-font-specification:'Helvetica Bold';text-align:start;letter-spacing:0px;word-spacing:0px;writing-mode:lr-tb;text-anchor:start;fill:#706f6c;fill-opacity:1;stroke:none;stroke-width:1.90622115"
         id="path1580"
         inkscape:connector-curvature="0" />
      <path
         d="m 455.80347,729.32669 -0.006,-2.55854 h 0.63743 l 0.006,0.44246 q 0.13802,-0.25489 0.24737,-0.35107 0.17593,-0.1587 0.45193,-0.1587 l 0.13309,0.01 -0.006,0.68293 q -0.0429,-0.006 -0.0857,-0.006 -0.0381,-0.006 -0.0999,-0.006 -0.35204,0 -0.4995,0.19719 -0.11413,0.14911 -0.11413,0.41359 v 1.33216 z"
         style="font-style:normal;font-variant:normal;font-weight:bold;font-stretch:normal;font-size:2.50919676px;line-height:125%;font-family:Helvetica;-inkscape-font-specification:'Helvetica Bold';text-align:start;letter-spacing:0px;word-spacing:0px;writing-mode:lr-tb;text-anchor:start;fill:#706f6c;fill-opacity:1;stroke:none;stroke-width:1.90622115"
         id="path1582"
         inkscape:connector-curvature="0" />
      <path
         d="m 459.70266,727.44146 0.006,1.38508 q 0,0.2116 0.0381,0.29336 0.0381,0.0816 0.10939,0.1058 v 0.10101 h -0.71832 q -0.0476,-0.14432 -0.0618,-0.30299 -0.16171,0.17308 -0.29493,0.24528 -0.21884,0.12497 -0.52329,0.12497 -0.31871,0 -0.52803,-0.17308 -0.24261,-0.20198 -0.24261,-0.5723 0,-0.36069 0.19504,-0.56269 0.19981,-0.20679 0.54231,-0.2549 l 0.59462,-0.0914 q 0.13802,-0.0192 0.18561,-0.0673 0.0523,-0.0529 0.0523,-0.13474 0,-0.18764 -0.15697,-0.25488 -0.0999,-0.0433 -0.28544,-0.0433 -0.21882,0 -0.31871,0.12018 -0.0713,0.0866 -0.0857,0.23565 h -0.64219 q 0.0476,-0.52902 0.39482,-0.74062 0.25213,-0.1539 0.73259,-0.1539 0.38057,0 0.63744,0.12975 0.37004,0.18784 0.37004,0.61104 z m -0.64695,0.96667 v -0.32704 q -0.0476,0.0385 -0.15224,0.077 -0.10465,0.0337 -0.3187,0.0673 -0.20932,0.0337 -0.2997,0.0962 -0.13327,0.0914 -0.13327,0.28374 0,0.1587 0.10465,0.24047 0.0857,0.0673 0.20456,0.0673 0.23785,0 0.41386,-0.13953 0.18084,-0.13934 0.18084,-0.36545 z"
         style="font-style:normal;font-variant:normal;font-weight:bold;font-stretch:normal;font-size:2.50919676px;line-height:125%;font-family:Helvetica;-inkscape-font-specification:'Helvetica Bold';text-align:start;letter-spacing:0px;word-spacing:0px;writing-mode:lr-tb;text-anchor:start;fill:#706f6c;fill-opacity:1;stroke:none;stroke-width:1.90622115"
         id="path1584"
         inkscape:connector-curvature="0" />
      <path
         d="m 462.38866,727.54726 h -0.65171 q -0.0284,-0.16349 -0.0952,-0.23085 -0.10465,-0.1058 -0.35202,-0.1058 -0.24261,0 -0.3425,0.0819 -0.0713,0.0577 -0.0713,0.16828 0,0.14912 0.40911,0.24046 0.58987,0.12976 0.76588,0.2116 0.41386,0.19719 0.41386,0.60117 0,0.49055 -0.40435,0.71658 -0.29493,0.16349 -0.70403,0.16349 -0.50902,0 -0.82297,-0.18266 -0.39484,-0.23084 -0.39484,-0.70215 h 0.68502 q 0,0.17787 0.12361,0.27894 0.12835,0.0962 0.42812,0.0962 0.22359,0 0.33776,-0.0962 0.0857,-0.0721 0.0857,-0.16829 0,-0.1587 -0.40434,-0.25008 -0.60415,-0.13455 -0.76112,-0.20679 -0.40911,-0.19238 -0.40911,-0.60598 0,-0.33664 0.21406,-0.5675 0.27116,-0.28856 0.80871,-0.28856 0.48046,0 0.75636,0.14912 0.38527,0.20662 0.38527,0.69717 z"
         style="font-style:normal;font-variant:normal;font-weight:bold;font-stretch:normal;font-size:2.50919676px;line-height:125%;font-family:Helvetica;-inkscape-font-specification:'Helvetica Bold';text-align:start;letter-spacing:0px;word-spacing:0px;writing-mode:lr-tb;text-anchor:start;fill:#706f6c;fill-opacity:1;stroke:none;stroke-width:1.90622115"
         id="path1586"
         inkscape:connector-curvature="0" />
      <path
         d="m 465.23641,727.55688 0.006,1.76981 h -0.66599 v -1.5534 q 0,-0.21641 -0.0571,-0.32221 -0.0952,-0.18285 -0.3758,-0.18285 -0.22835,0 -0.37581,0.15391 -0.14749,0.15391 -0.14749,0.43765 v 1.46682 h -0.66597 v -3.45306 h 0.66121 v 1.22638 q 0.081,-0.16829 0.28068,-0.28377 0.19978,-0.11538 0.46142,-0.11538 0.38531,0 0.63268,0.22603 0.24644,0.22128 0.24644,0.63007 z"
         style="font-style:normal;font-variant:normal;font-weight:bold;font-stretch:normal;font-size:2.50919676px;line-height:125%;font-family:Helvetica;-inkscape-font-specification:'Helvetica Bold';text-align:start;letter-spacing:0px;word-spacing:0px;writing-mode:lr-tb;text-anchor:start;fill:#706f6c;fill-opacity:1;stroke:none;stroke-width:1.90622115"
         id="path1588"
         inkscape:connector-curvature="0" />
      <path
         d="m 426.77057,739.52579 v -0.58194 h 1.4271 v 1.8612 h -0.47094 l -0.0713,-0.43284 q -0.20455,0.24046 -0.3663,0.34147 -0.29017,0.18266 -0.69928,0.18266 -0.66122,0 -1.0941,-0.44727 -0.4757,-0.49055 -0.4757,-1.36103 0,-0.76948 0.39958,-1.26484 0.45191,-0.5627 1.27013,-0.5627 0.71356,0 1.13692,0.404 0.35677,0.34145 0.35677,0.75986 h -0.71355 q 0,-0.14912 -0.18067,-0.33183 -0.2331,-0.23568 -0.56608,-0.23568 -0.41862,0 -0.68024,0.28858 -0.2997,0.33183 -0.2997,0.95223 0,0.64926 0.31395,0.94743 0.25213,0.24047 0.68502,0.24047 0.22358,0 0.41386,-0.11539 0.31871,-0.19237 0.41387,-0.64444 z"
         style="font-style:normal;font-variant:normal;font-weight:bold;font-stretch:normal;font-size:2.50919676px;line-height:125%;font-family:Helvetica;-inkscape-font-specification:'Helvetica Bold';text-align:start;letter-spacing:0px;word-spacing:0px;writing-mode:lr-tb;text-anchor:start;fill:#706f6c;fill-opacity:1;stroke:none;stroke-width:1.90622115"
         id="path1531"
         inkscape:connector-curvature="0" />
      <path
         d="m 430.30667,740.05481 h 0.68501 q -0.12361,0.42803 -0.45667,0.63963 -0.28066,0.17787 -0.65647,0.17787 -0.58511,0 -0.89908,-0.30299 -0.36154,-0.35108 -0.36154,-1.09653 0,-0.43763 0.1856,-0.75986 0.30446,-0.53383 1.02277,-0.53383 0.48046,0 0.78491,0.26452 0.4091,0.35589 0.4091,1.14462 l -0.006,0.12017 h -1.73632 q 0.0428,0.34145 0.18067,0.48572 0.14276,0.13953 0.41862,0.13953 0.1475,0 0.2664,-0.0721 0.12462,-0.0721 0.16268,-0.20679 z m -1.00373,-0.78392 h 1.03227 q -0.0284,-0.28374 -0.19027,-0.42322 -0.13328,-0.11538 -0.32349,-0.11538 -0.23309,0 -0.36153,0.13953 -0.12844,0.13935 -0.15698,0.39907 z"
         style="font-style:normal;font-variant:normal;font-weight:bold;font-stretch:normal;font-size:2.50919676px;line-height:125%;font-family:Helvetica;-inkscape-font-specification:'Helvetica Bold';text-align:start;letter-spacing:0px;word-spacing:0px;writing-mode:lr-tb;text-anchor:start;fill:#706f6c;fill-opacity:1;stroke:none;stroke-width:1.90622115"
         id="path1533"
         inkscape:connector-curvature="0" />
      <path
         d="m 432.21252,737.55398 -0.004,0.69253 h 0.4186 v 0.48093 h -0.41386 l -0.004,1.38989 q 0,0.12497 0.0428,0.16828 0.0476,0.0385 0.23785,0.0385 l 0.13802,-0.01 v 0.50979 l -0.31395,0.01 h -0.0857 q -0.40434,0 -0.55655,-0.14911 -0.12361,-0.12018 -0.12361,-0.40398 v -1.5534 h -0.34252 l -0.004,-0.48093 h 0.3425 l 0.006,-0.69253 z"
         style="font-style:normal;font-variant:normal;font-weight:bold;font-stretch:normal;font-size:2.50919676px;line-height:125%;font-family:Helvetica;-inkscape-font-specification:'Helvetica Bold';text-align:start;letter-spacing:0px;word-spacing:0px;writing-mode:lr-tb;text-anchor:start;fill:#706f6c;fill-opacity:1;stroke:none;stroke-width:1.90622115"
         id="path1535"
         inkscape:connector-curvature="0" />
      <path
         d="m 436.50967,737.35198 h 0.66599 v 3.45307 h -0.71356 l -1.3938,-2.46236 -0.009,2.46236 h -0.66599 v -3.45307 h 0.7516 l 1.35099,2.40465 z"
         style="font-style:normal;font-variant:normal;font-weight:bold;font-stretch:normal;font-size:2.50919676px;line-height:125%;font-family:Helvetica;-inkscape-font-specification:'Helvetica Bold';text-align:start;letter-spacing:0px;word-spacing:0px;writing-mode:lr-tb;text-anchor:start;fill:#706f6c;fill-opacity:1;stroke:none;stroke-width:1.90622115"
         id="path1537"
         inkscape:connector-curvature="0" />
      <path
         d="m 437.82574,738.24651 h 0.66596 v 2.55854 h -0.66596 z m 0.66596,-0.9282 v 0.62521 h -0.66596 v -0.62521 z"
         style="font-style:normal;font-variant:normal;font-weight:bold;font-stretch:normal;font-size:2.50919676px;line-height:125%;font-family:Helvetica;-inkscape-font-specification:'Helvetica Bold';text-align:start;letter-spacing:0px;word-spacing:0px;writing-mode:lr-tb;text-anchor:start;fill:#706f6c;fill-opacity:1;stroke:none;stroke-width:1.90622115"
         id="path1539"
         inkscape:connector-curvature="0" />
      <path
         d="m 439.87763,737.55398 -0.006,0.69253 h 0.41862 v 0.48093 h -0.41386 l -0.006,1.38989 q 0,0.12497 0.0428,0.16828 0.0476,0.0385 0.23786,0.0385 l 0.13801,-0.01 v 0.50979 l -0.31395,0.01 h -0.0857 q -0.40434,0 -0.55658,-0.14911 -0.12361,-0.12018 -0.12361,-0.40398 v -1.5534 h -0.34252 l -0.006,-0.48093 h 0.34252 l 0.006,-0.69253 z"
         style="font-style:normal;font-variant:normal;font-weight:bold;font-stretch:normal;font-size:2.50919676px;line-height:125%;font-family:Helvetica;-inkscape-font-specification:'Helvetica Bold';text-align:start;letter-spacing:0px;word-spacing:0px;writing-mode:lr-tb;text-anchor:start;fill:#706f6c;fill-opacity:1;stroke:none;stroke-width:1.90622115"
         id="path1541"
         inkscape:connector-curvature="0" />
      <path
         d="m 440.7148,740.80505 -0.006,-2.55854 h 0.63745 l 0.006,0.44246 q 0.13802,-0.25489 0.24735,-0.35109 0.17593,-0.1587 0.45193,-0.1587 l 0.13309,0.01 -0.004,0.68293 q -0.0428,-0.006 -0.0857,-0.006 -0.0381,-0.006 -0.0999,-0.006 -0.35202,0 -0.49949,0.19717 -0.11413,0.14911 -0.11413,0.41359 v 1.33218 z"
         style="font-style:normal;font-variant:normal;font-weight:bold;font-stretch:normal;font-size:2.50919676px;line-height:125%;font-family:Helvetica;-inkscape-font-specification:'Helvetica Bold';text-align:start;letter-spacing:0px;word-spacing:0px;writing-mode:lr-tb;text-anchor:start;fill:#706f6c;fill-opacity:1;stroke:none;stroke-width:1.90622115"
         id="path1543"
         inkscape:connector-curvature="0" />
      <path
         d="m 444.85185,738.24651 v 2.55854 h -0.63744 v -0.3607 q -0.25213,0.42803 -0.78015,0.42803 -0.39483,0 -0.61843,-0.22603 -0.24259,-0.24528 -0.24259,-0.71658 l -0.006,-1.68326 h 0.67072 v 1.58706 q 0,0.26933 0.13802,0.38475 0.10465,0.0866 0.29493,0.0866 0.20456,0 0.33775,-0.11538 0.17593,-0.15391 0.17593,-0.46652 v -1.47644 z"
         style="font-style:normal;font-variant:normal;font-weight:bold;font-stretch:normal;font-size:2.50919676px;line-height:125%;font-family:Helvetica;-inkscape-font-specification:'Helvetica Bold';text-align:start;letter-spacing:0px;word-spacing:0px;writing-mode:lr-tb;text-anchor:start;fill:#706f6c;fill-opacity:1;stroke:none;stroke-width:1.90622115"
         id="path1545"
         inkscape:connector-curvature="0" />
      <path
         d="m 446.87989,739.50174 0.86103,1.30331 h -0.82296 l -0.43765,-0.76948 -0.43765,0.76948 h -0.80393 l 0.86101,-1.30331 -0.83248,-1.25523 h 0.80871 l 0.42811,0.74545 0.41862,-0.74545 h 0.78491 z"
         style="font-style:normal;font-variant:normal;font-weight:bold;font-stretch:normal;font-size:2.50919676px;line-height:125%;font-family:Helvetica;-inkscape-font-specification:'Helvetica Bold';text-align:start;letter-spacing:0px;word-spacing:0px;writing-mode:lr-tb;text-anchor:start;fill:#706f6c;fill-opacity:1;stroke:none;stroke-width:1.90622115"
         id="path1547"
         inkscape:connector-curvature="0" />
      <path
         d="m 449.45813,738.24651 h 0.66597 v 2.55854 h -0.66597 z m 0.66597,-0.9282 v 0.62521 h -0.66597 v -0.62521 z"
         style="font-style:normal;font-variant:normal;font-weight:bold;font-stretch:normal;font-size:2.50919676px;line-height:125%;font-family:Helvetica;-inkscape-font-specification:'Helvetica Bold';text-align:start;letter-spacing:0px;word-spacing:0px;writing-mode:lr-tb;text-anchor:start;fill:#706f6c;fill-opacity:1;stroke:none;stroke-width:1.90622115"
         id="path1549"
         inkscape:connector-curvature="0" />
      <path
         d="m 452.26641,739.87206 h 0.67549 q -0.0286,0.33183 -0.23786,0.59635 -0.31395,0.40397 -0.91809,0.40397 -0.63744,0 -0.94189,-0.43284 -0.23309,-0.33183 -0.23309,-0.84163 0,-0.65406 0.28542,-1.01957 0.30921,-0.39916 0.92761,-0.39916 0.39958,0 0.68502,0.18764 0.39483,0.2549 0.43763,0.79354 h -0.67548 q -0.0428,-0.22124 -0.1712,-0.32704 -0.10465,-0.0866 -0.27114,-0.0866 -0.28541,0 -0.42337,0.25007 -0.10939,0.19719 -0.10939,0.49055 0,0.4569 0.1236,0.64444 0.12854,0.18765 0.39007,0.18765 0.21884,0 0.35202,-0.17787 0.10465,-0.13953 0.10465,-0.26946 z"
         style="font-style:normal;font-variant:normal;font-weight:bold;font-stretch:normal;font-size:2.50919676px;line-height:125%;font-family:Helvetica;-inkscape-font-specification:'Helvetica Bold';text-align:start;letter-spacing:0px;word-spacing:0px;writing-mode:lr-tb;text-anchor:start;fill:#706f6c;fill-opacity:1;stroke:none;stroke-width:1.90622115"
         id="path1551"
         inkscape:connector-curvature="0" />
      <path
         d="m 455.85149,739.52579 q 0,0.65887 -0.39009,1.01957 -0.35202,0.32702 -0.90382,0.32702 -0.55182,0 -0.90384,-0.32702 -0.39007,-0.3607 -0.39007,-1.01957 0,-0.65406 0.39007,-1.01957 0.35202,-0.32704 0.89908,-0.32704 0.54706,0 0.90384,0.32704 0.39483,0.36551 0.39483,1.01957 z m -0.68502,0 q 0,-0.31742 -0.10939,-0.50979 -0.15224,-0.26932 -0.49948,-0.26932 -0.3425,0 -0.49474,0.2645 -0.11413,0.202 -0.11413,0.51461 0,0.3174 0.10939,0.50978 0.15224,0.26933 0.4995,0.26933 0.3425,0 0.49472,-0.26452 0.11413,-0.202 0.11413,-0.51459 z"
         style="font-style:normal;font-variant:normal;font-weight:bold;font-stretch:normal;font-size:2.50919676px;line-height:125%;font-family:Helvetica;-inkscape-font-specification:'Helvetica Bold';text-align:start;letter-spacing:0px;word-spacing:0px;writing-mode:lr-tb;text-anchor:start;fill:#706f6c;fill-opacity:1;stroke:none;stroke-width:1.90622115"
         id="path1553"
         inkscape:connector-curvature="0" />
      <path
         d="m 458.60261,739.03524 0.006,1.76981 h -0.66598 v -1.5534 q 0,-0.21641 -0.0571,-0.32221 -0.0952,-0.18285 -0.37581,-0.18285 -0.22833,0 -0.37579,0.15391 -0.1475,0.15391 -0.1475,0.43765 v 1.46682 h -0.66598 v -2.55854 h 0.63269 v 0.37513 q 0.16172,-0.24527 0.3425,-0.34147 0.18561,-0.10101 0.42814,-0.10101 0.38531,0 0.63268,0.22604 0.24644,0.22133 0.24644,0.63012 z"
         style="font-style:normal;font-variant:normal;font-weight:bold;font-stretch:normal;font-size:2.50919676px;line-height:125%;font-family:Helvetica;-inkscape-font-specification:'Helvetica Bold';text-align:start;letter-spacing:0px;word-spacing:0px;writing-mode:lr-tb;text-anchor:start;fill:#706f6c;fill-opacity:1;stroke:none;stroke-width:1.90622115"
         id="path1555"
         inkscape:connector-curvature="0" />
      <path
         d="m 461.3109,739.02562 h -0.65171 q -0.0284,-0.16349 -0.0952,-0.23085 -0.10465,-0.1058 -0.35202,-0.1058 -0.24261,0 -0.3425,0.0816 -0.0713,0.0577 -0.0713,0.16829 0,0.14911 0.4091,0.24046 0.58987,0.12995 0.76588,0.21162 0.41386,0.19719 0.41386,0.60116 0,0.49055 -0.40434,0.71659 -0.29493,0.16349 -0.70404,0.16349 -0.50901,0 -0.82296,-0.18266 -0.39484,-0.23084 -0.39484,-0.70215 h 0.68502 q 0,0.17787 0.12361,0.27893 0.12834,0.0962 0.42813,0.0962 0.22358,0 0.33774,-0.0962 0.0857,-0.0721 0.0857,-0.16828 0,-0.1587 -0.40435,-0.25009 -0.60414,-0.13474 -0.76112,-0.20679 -0.4091,-0.19237 -0.4091,-0.60597 0,-0.33666 0.21406,-0.56751 0.27116,-0.28855 0.80871,-0.28855 0.48046,0 0.75636,0.14912 0.38527,0.20679 0.38527,0.69734 z"
         style="font-style:normal;font-variant:normal;font-weight:bold;font-stretch:normal;font-size:2.50919676px;line-height:125%;font-family:Helvetica;-inkscape-font-specification:'Helvetica Bold';text-align:start;letter-spacing:0px;word-spacing:0px;writing-mode:lr-tb;text-anchor:start;fill:#706f6c;fill-opacity:1;stroke:none;stroke-width:1.90622115"
         id="path1557"
         inkscape:connector-curvature="0" />
    </g>
  </g>
</svg>
